<?xml version="1.0" encoding="UTF-8" standalone="no"?>
<!-- Created with Inkscape (http://www.inkscape.org/) -->

<svg
   width="52.440456mm"
   height="34.618088mm"
   viewBox="0 0 52.440456 34.618088"
   version="1.1"
   id="svg1"
   xml:space="preserve"
   xmlns:xlink="http://www.w3.org/1999/xlink"
   xmlns="http://www.w3.org/2000/svg"
   xmlns:svg="http://www.w3.org/2000/svg"><defs
     id="defs1"><linearGradient
       id="linearGradient1"><stop
         style="stop-color:#222222;stop-opacity:1;"
         offset="0.37619761"
         id="stop1" /><stop
         style="stop-color:#632901;stop-opacity:1;"
         offset="1"
         id="stop2" /></linearGradient><linearGradient
       id="linearGradient4"><stop
         style="stop-color:#e5e5e5;stop-opacity:1;"
         offset="0"
         id="stop4" /><stop
         style="stop-color:#d34bbc;stop-opacity:1;"
         offset="1"
         id="stop5" /></linearGradient><linearGradient
       xlink:href="#linearGradient4"
       id="linearGradient5"
       x1="57.267845"
       y1="140.2579"
       x2="134.75948"
       y2="140.2579"
       gradientUnits="userSpaceOnUse"
       gradientTransform="matrix(0.45222819,0,0,0.45222819,-11.795459,-43.693972)" /><linearGradient
       xlink:href="#linearGradient1"
       id="linearGradient2"
       x1="98.403481"
       y1="167.64946"
       x2="124.43797"
       y2="167.64946"
       gradientUnits="userSpaceOnUse"
       gradientTransform="matrix(0.45222819,0,0,0.45222819,-11.795459,-43.693972)" /></defs><g
     id="layer2"
     transform="translate(-0.30061028,-0.72345916)"><g
       id="layer5"><path
         style="fill:url(#linearGradient2);stroke:#fffffb;stroke-width:0.361783;stroke-linecap:butt;stroke-linejoin:round;stroke-dasharray:none;stroke-opacity:1;paint-order:normal"
         d="m 32.886239,29.283279 c 0,0 3.515272,5.360211 4.146387,5.508519 1.04827,0.363465 7.036762,0.368856 7.036762,0.368856 0.420029,-0.02958 0.42911,-0.935823 -0.359101,-1.075738 C 42.068323,33.683396 38.844786,33.930273 38.034828,33.62145 37.383709,32.837884 34.861972,29.581 34.861972,29.581 Z"
         id="path3" /><path
         style="fill:#222222;fill-opacity:1;stroke:#fffffb;stroke-width:0.361783;stroke-linejoin:round;stroke-dasharray:none;stroke-opacity:1"
         d="m 42.524553,0.95532268 c 6.165373,1.16557152 7.105868,4.08694782 7.105868,4.08694782 l 2.929814,0.9596463 c 0,0 -2.617935,0.3943475 -3.554202,1.0010387 -0.936261,0.6066912 -0.647102,5.7561825 -0.21706,7.1794925 0.517268,1.71201 0.152934,4.733455 -1.560965,7.846223 -1.713904,3.112763 -8.952794,6.603793 -8.952794,6.603793 -1.210045,0.351038 -1.622223,0.843098 -4.029552,0.800933 L 32.154579,29.05807 24.155738,27.242418 C 23.165033,26.822371 20.736606,25.618843 20.516541,23.779224 18.882881,22.70709 3.6143685,29.889464 2.367914,30.360989 1.8702849,30.661165 0.59289854,30.510962 0.48150163,29.858143 0.60182733,28.389658 22.28193,17.850404 22.28193,17.850404 l 3.588956,-4.443699 5.310442,-5.4933961 c 0,0 3.249367,-4.1865072 4.35143,-4.9784447 0.629434,-0.8091131 5.702059,-2.31662335 6.991795,-1.97954152 z"
         id="path1" /></g><g
       id="layer1"><path
         style="fill:url(#linearGradient5);stroke:#fffffb;stroke-width:0.361783;stroke-linecap:butt;stroke-linejoin:round;stroke-dasharray:none;stroke-opacity:1;paint-order:normal"
         d="m 39.679582,11.225048 4.850811,2.304288 c 1.143691,0.625016 2.254956,0.129355 2.806339,0.129355 0.645177,-0.292967 1.11615,-0.682543 1.11615,-0.682543 0.341649,0.554138 0.824588,2.970664 0.467581,4.013417 0,0 -0.78861,3.223573 -1.019386,3.790477 -0.251235,1.261196 -2.524985,3.230709 -3.374504,4.058685 -0.540839,0.533262 -3.49094,2.443063 -4.702953,3.009967 -2.247348,1.240597 -3.15549,1.562589 -5.002674,1.598297 l -6.683328,-1.238387 c 0,0 -2.581824,-0.53305 -3.063043,-0.644429 -0.748185,-0.06738 -2.898942,-1.080636 -3.42841,-1.57971 0,0 -0.675009,-1.84931 -1.277031,-2.33319 -0.45673,-0.277894 -5.599004,1.436638 -5.599004,1.436638 0.743457,-1.909004 1.458634,-2.33044 4.796239,-2.887874 z"
         id="path4" /></g><g
       id="layer7"><path
         style="fill:#222222;fill-opacity:1;stroke:#fffffb;stroke-width:0.361783;stroke-linecap:butt;stroke-linejoin:round;stroke-dasharray:none;stroke-opacity:1;paint-order:normal"
         d="m 39.192866,11.170953 c 1.334106,-0.143552 1.643085,1.418264 1.559351,2.012252 -0.177586,1.014796 -2.833725,3.969741 -3.801073,4.701971 0,0 -16.720461,10.655052 -17.974904,11.955113 -0.242521,0.505962 -4.210635,3.5944 -4.210635,3.5944 l 3.727791,-6.906827 c 0.140973,-0.8452 4.473664,-7.39555 5.860925,-8.787698 1.949104,-1.955973 14.838545,-6.569211 14.838545,-6.569211 z"
         id="path2" /></g></g></svg>
